<?xml version="1.0" encoding="utf-8"?>
<!-- Generator: Adobe Illustrator 21.1.0, SVG Export Plug-In . SVG Version: 6.00 Build 0)  -->
<svg version="1.1" id="Calque_1" xmlns="http://www.w3.org/2000/svg" xmlns:xlink="http://www.w3.org/1999/xlink" x="0px" y="0px"
	 viewBox="0 0 78.3 145" style="enable-background:new 0 0 78.3 145;" xml:space="preserve">
<style type="text/css">
	.st0{fill:#EEB764;}
	.st1{fill:#6ABEAF;}
	.st2{fill:#C5C000;}
	.st3{fill:#E21A1C;}
	.st4{fill:#FCEAE3;}
	.st5{fill:#7F4490;}
	.st6{opacity:0.37;fill:#020304;}
</style>
<g>
	<g>
		<polygon class="st0" points="16.1,76.1 10.1,84.5 11,91.3 17,88.8 19.1,82.5 20.3,71.7 		"/>
		<path class="st0" d="M47.7,4.1l-9-4.1L23.3,15.2c0,0,0,9.5-0.2,13.1L42.9,5.5l4,1.3L47.7,4.1z"/>
		<polygon class="st0" points="19.1,53.8 35.9,35.2 40.4,50 15.6,64.8 		"/>
		<polygon class="st0" points="67.9,53.4 61.7,46.7 40.4,67.1 62.1,49.5 62.1,49.5 		"/>
		<path class="st0" d="M48.3,133.6c1.8-6.2-15-6.3-16.9-6.4l-5.7,6.1l9.5,11.9l7,0.1l0.6-1l-0.4-1.3C42.4,143,46.5,139.8,48.3,133.6
			z"/>
		<polygon class="st0" points="14.3,104.4 23.2,99.6 25.6,104.7 22.8,101.6 		"/>
	</g>
	<g>
		<path class="st1" d="M33.5,16.3l2.4,18.9L19.1,53.8c0,0,3.5-16.4,4-25.5L33.5,16.3z"/>
		<polygon class="st1" points="33.6,79.1 26.7,88 34.8,96.9 40.4,89.3 38.1,70.1 		"/>
		<path class="st1" d="M21.1,127.4l4.6,5.9l5.7-6.1c0.9-3.3,1.4-4.4,2.7-7.2c0.1-2.4-0.6-5.2-2.5-7.8c0,0-1.9-2.4-4.7-4.7
			c-0.3-0.7-0.7-1.6-1.3-2.8l-2.8-3.1l-8.5,2.8l-9.6,2.2l4.8,6.1L21.1,127.4z"/>
		<polygon class="st1" points="71.8,74.7 74.4,77.5 67.9,53.4 62.1,49.5 40.4,67.1 44.8,87.8 69.7,111.6 73.8,102.4 74.8,83.1 
			73.7,85.4 		"/>
	</g>
	<g>
		<g>
			<polygon class="st2" points="73.4,138.9 71.9,138.4 71.7,139.5 67.8,142.3 56.5,142.7 51.7,144.2 45.5,143.1 45,144.6 
				42.8,144.3 42.2,145.3 50.5,145.4 72,141.6 			"/>
			<path class="st2" d="M77.5,78.3L64.2,32.7l-10-25.6l-6.5-3l-0.8,2.6l-4-1.3l-9.4,10.9l2.4,18.9L40.4,50l-9.2,5.5l7.2,8.9
				L27.5,79.2L26.7,88l6.9-9l4.6-9l2.2,19.3l4.4-1.5l-4.4-20.8l21.3-20.4l6.2,6.7l6.5,24.1l2,2.1l-1.6,3.5l-0.9,19.3l-4.1,9.3
				L44.8,87.8l15.6,30.4l-15,11.1c2.8,1.5,4.2,2.4,1.6,7.6l3.8-2.3l11.1-4.4l10.2,6.4l-7.2-19.7l2.5,1.6l2.5-1.3l1.5,0.2l1.7,6.8
				l2.1-1.4l1.7,6.3l-1.9,6.8l3.3-6.4L77.5,78.3z"/>
		</g>
		<path class="st2" d="M34.8,96.9l-1.5,18.5c0,0,0.7,1.8,0.8,4.4c3.6-6,7.7-4,7.7-4C48.4,109.8,34.8,96.9,34.8,96.9z"/>
	</g>
	<g>
		<path class="st3" d="M75.1,122.7l-2.1,1.4l-1,12.4l-10.2-6.4l-11.1,4.4l-3.8,2.3c-1.9,3.9-4.6,6.1-4.6,6.1l0.4,1.3l2.2,0.4
			l0.5-1.6l6.2,1.1l4.8-1.5l11.2-0.4l4-2.8l0.1-1.1l1.5,0.5l1.6-3.1l1.9-6.8L75.1,122.7z"/>
		<path class="st3" d="M26.7,88l2.2-25.2l-13.3,2c0,0-5.2,13.5-12.6,21.7l-3,14.1l4.7,5.9l9.6-2.2l8.9-4.8l2.4,5.1l1.3,2.8
			c1.6,1.5,5.3,4.6,6.5,8l1.5-18.5L26.7,88z M19.1,82.5L17,88.8L11,91.3l-1-6.8l6.1-8.4l4.1-4.4L19.1,82.5z"/>
	</g>
	<g>
		<polygon class="st4" points="16.1,76.1 10.1,84.5 11,91.3 17,88.8 19.1,82.5 20.3,71.7 		"/>
		<path class="st4" d="M47.7,4.1l-9-4.1L23.3,15.2c0,0,0,9.5-0.2,13.1L42.9,5.5l4,1.3L47.7,4.1z"/>
		<polygon class="st4" points="19.1,53.8 35.9,35.2 40.4,50 15.6,64.8 		"/>
		<polygon class="st4" points="67.9,53.4 61.7,46.7 40.4,67.1 62.1,49.5 62.1,49.5 		"/>
		<path class="st4" d="M48.3,133.6c1.8-6.2-15-6.3-16.9-6.4l-5.7,6.1l9.5,11.9l7,0.1l0.6-1l-0.4-1.3C42.4,143,46.5,139.8,48.3,133.6
			z"/>
		<polygon class="st4" points="14.3,104.4 23.2,99.6 25.6,104.7 22.8,101.6 		"/>
	</g>
	<g>
		<path class="st5" d="M41.8,115.8c0,0-6.8-3.3-10.5,11.3c4.5,0.3,8.9,0.2,14,2.2l15-11.1L44.8,87.8l-4.4,1.5l-5.5,7.6
			C34.8,96.9,48.5,109.9,41.8,115.8z"/>
		<polygon class="st5" points="31.2,55.5 38.4,64.4 27.5,79.2 28.9,62.8 15.6,64.8 		"/>
		<polygon class="st5" points="63.1,38.2 59.6,24.8 57,15.6 52.6,11.3 48.6,13 43.2,12.5 42,29.5 54,37.9 48.9,42.5 51.4,45.8 
			61.1,43.2 63.2,44.2 		"/>
		<polygon class="st5" points="71.3,117.3 69.8,117.1 67.4,118.4 64.9,116.8 72.1,136.5 73.1,124.1 		"/>
		<polygon class="st5" points="71.8,74.7 76.4,79.6 73.7,85.4 		"/>
	</g>
	<polygon class="st6" points="77.5,78.3 64.2,32.7 54.2,7.1 47.7,4.1 47.7,4.1 38.6,0 42.9,5.5 42.9,5.5 48.6,13 48.6,13 58.1,24.8 
		61.1,43.2 61.1,43.2 61.7,46.7 61.7,46.7 62.1,49.5 62.1,49.5 70.7,101.9 69.5,114 69.8,117.1 69.8,117.1 72.1,136.5 42.4,143 
		35.2,145.1 42.2,145.3 42.2,145.3 50.5,145.4 72,141.6 78.3,129.4 	"/>
</g>
</svg>
